<svg xmlns="http://www.w3.org/2000/svg" viewBox="0 0 1410.29 163.91"><defs><style>.cls-1{fill:#fff;}</style></defs><g id="Layer_2" data-name="Layer 2"><polygon class="cls-1" points="114.45 128.2 114.45 163.61 0 163.61 0 0.4 35.42 0.4 35.42 128.2 114.45 128.2"/><rect class="cls-1" x="784.16" y="0.43" width="35.48" height="163.18"/><polygon class="cls-1" points="995.19 0.2 995.19 163.61 960.5 163.61 890.59 57.97 890.59 163.61 855.12 163.61 855.12 0.2 889.8 0.2 959.71 106.06 959.71 0.2 995.19 0.2"/><path class="cls-1" d="M1114.83.2h-39.72l-58.68,163.41h37.31l10.52-30.44h61.19L1136,163.61h37.53Zm-40.68,103.91,20.71-59.87,20.7,59.87Z"/><polygon class="cls-1" points="1290.59 0.43 1290.59 29.72 1248.02 29.72 1248.02 163.61 1212.55 163.61 1212.55 29.72 1169.98 29.72 1169.98 0.43 1290.59 0.43"/><polygon class="cls-1" points="1349.64 29.72 1349.64 66.34 1403.43 66.34 1403.43 95.18 1349.64 95.18 1349.64 134.09 1410.29 134.09 1410.29 163.61 1314.17 163.61 1314.17 0.2 1410.29 0.2 1410.29 29.72 1349.64 29.72"/><path class="cls-1" d="M723.89,5.9c-17.62-8.79-51.84-10.34-80.52,13.7C617.85-1.5,542.47-24.07,531.59,61.32c0,0-.23,3.08-14.25,102.59h36.1l14.42-99c6.64-39.41,41.38-35.22,42.55-20.3,0,.43-13.21,18.91-15.65,43.35-1.75,17.44,2.22,32.29,11.3,42.91,5.63,6.58,16.1,14.66,34.07,15.75,23.47,1.4,44.32-18.66,46.5-44.78l0-.45c1.23-14.49,0-34-16.92-55.93,15.62-18,35.34-8.36,38.66-6.19,24.39,15.95-1.21,96.65-8.84,124.6h39.82c4.51-17.36,8.86-33.61,12.63-54.47C763.84,43.92,744.26,16,723.89,5.9ZM640.65,116.19c-11.75.51-19.33-12.22-16.23-27.72,1.73-8.64,5.3-16,17.79-28.59,8.92,10.56,13.77,18.61,14.86,27.44C659.41,106.45,651.93,115.7,640.65,116.19Z"/><path class="cls-1" d="M372.86,85.49a39.56,39.56,0,0,1-.06-5.94c0,.82-.07,1.63-.07,2.46C372.73,83.18,372.78,84.34,372.86,85.49Z"/><path class="cls-1" d="M312.92,58.05h0l-3.65-2.81,22-54.76H292.23L279.49,32.19,260.76,17.72A81,81,0,0,0,210.67.47c-45,0-81.56,41.07-81.56,81.54a81.54,81.54,0,0,0,158.11,28.07h0l7.3-18.14L298,94.47l22.43,16.58,13.95-36.47ZM210.67,127.4A45.44,45.44,0,0,1,165.28,82c0-25,20.36-43.7,45.39-43.7a45.26,45.26,0,0,1,35,16.52c.66.78,1.28,1.57,1.86,2.35,5.37,7.2,8.53,15,8.53,24.83A45.43,45.43,0,0,1,210.67,127.4Z"/><path class="cls-1" d="M418.11.47c-35.11,0-65.11,24-76.57,55.18-.11.32-.23.62-.33.93l-.07.15-6.8,17.85-14,36.47-20.09,52.52h36.26l12.61-31.25,3.42,2.52L367,145.52l.11.1A81.54,81.54,0,1,0,418.11.47Zm0,126.93A45.45,45.45,0,0,1,372.9,86a1.64,1.64,0,0,1,0-.23,1.64,1.64,0,0,1,0-.23,39.56,39.56,0,0,1-.06-5.94c0-.27,0-.54.05-.81s0-.43,0-.65l.06-.61c0-.17,0-.33.05-.5a2.34,2.34,0,0,0,0-.26v0c0-.15,0-.3.07-.45v0c0-.1,0-.2,0-.3s0-.22,0-.34v0c0-.23.07-.47.12-.7l.06-.36.06-.35c0-.18.07-.36.09-.53s.07-.37.11-.55c0,0,0,0,0,0,0-.24.1-.49.15-.73.1-.42.18-.8.27-1.14s.1-.39.15-.56.12-.44.17-.62.17-.57.23-.74,0-.12,0-.16v0h0l0,0v0c5.66-18.18,23-30.64,43.41-30.64,25,0,45.39,18.68,45.39,43.69A45.43,45.43,0,0,1,418.11,127.4Z"/><path class="cls-1" d="M373.12,76.23c0,.16-.05.32-.07.49v0C373.07,76.53,373.09,76.38,373.12,76.23Z"/></g></svg>